<svg id="SvgjsSvg1017" xmlns="http://www.w3.org/2000/svg" version="1.1" xmlns:xlink="http://www.w3.org/1999/xlink" xmlns:svgjs="http://svgjs.com/svgjs" width="32.700000000000045" height="32.86999999999989"><defs id="SvgjsDefs1018"><filter id="SvgjsFilter1020" width="200%" height="200%" x="-50%" y="-50%"><feGaussianBlur id="SvgjsFeGaussianBlur1021" stdDeviation="0.5 " result="SvgjsFeGaussianBlur1021Out" in="SourceGraphic"></feGaussianBlur></filter></defs><path id="SvgjsPath1019" d="M663.806 3590.76C655.3280000000001 3590.76 648.456 3583.88 648.456 3575.3900000000003C648.456 3566.9000000000005 655.328 3560.0200000000004 663.806 3560.0200000000004C672.283 3560.0200000000004 679.1560000000001 3566.9000000000005 679.1560000000001 3575.3900000000003C679.1560000000001 3583.88 672.283 3590.76 663.806 3590.76ZM663.969 3572.74C663.969 3569.27 660.1940000000001 3569.5499999999997 660.1940000000001 3569.5499999999997L654.5960000000001 3569.5499999999997L654.6030000000001 3581.87L659.826 3581.8399999999997C659.826 3581.8399999999997 664.32 3582.18 664.36 3578.1499999999996C664.36 3575.7999999999997 662.465 3575.2299999999996 662.465 3575.2299999999996C662.465 3575.2299999999996 663.969 3574.6899999999996 663.969 3572.74ZM669.854 3572.32C665.267 3572.32 665.493 3577.1400000000003 665.493 3577.1400000000003C665.493 3577.1400000000003 665.2370000000001 3581.88 669.9440000000001 3581.88C673.5680000000001 3581.88 674.094 3578.8900000000003 674.094 3578.8900000000003L671.763 3578.8900000000003C671.763 3578.8900000000003 671.3870000000001 3579.9400000000005 670.004 3579.9200000000005C667.7330000000001 3579.9200000000005 667.809 3577.7300000000005 667.809 3577.7300000000005L674.199 3577.7000000000003C674.199 3577.7000000000003 674.861 3572.32 669.8539999999999 3572.32ZM659.723 3579.7L657.117 3579.6899999999996L657.107 3576.4099999999994C657.107 3576.4099999999994 658.692 3576.4199999999996 659.7579999999999 3576.4199999999996C659.7539999999999 3576.4199999999996 661.7679999999999 3576.2799999999997 661.7679999999999 3577.95C661.7679999999999 3579.9399999999996 659.723 3579.7 659.723 3579.7ZM669.839 3574.29C671.8080000000001 3574.29 671.854 3576.16 671.854 3576.16L667.854 3576.19C667.854 3576.19 668.004 3574.29 669.839 3574.29ZM672.305 3570.22L667.5129999999999 3570.22L667.5129999999999 3571.5899999999997L672.305 3571.5899999999997ZM661.518 3573.01C661.518 3571.42 659.385 3571.7000000000003 659.385 3571.7000000000003L657.112 3571.69L657.112 3574.41L659.7429999999999 3574.3999999999996C659.7429999999999 3574.3999999999996 661.5179999999999 3574.6099999999997 661.5179999999999 3573.0099999999998Z " fill="#000000" fill-opacity="0.25" filter="url(#SvgjsFilter1020)" transform="matrix(1,0,0,1,-647.65,-3559)"></path><path id="SvgjsPath1022" d="M663.806 3589.76C655.3280000000001 3589.76 648.456 3582.88 648.456 3574.3900000000003C648.456 3565.9000000000005 655.328 3559.0200000000004 663.806 3559.0200000000004C672.283 3559.0200000000004 679.1560000000001 3565.9000000000005 679.1560000000001 3574.3900000000003C679.1560000000001 3582.88 672.283 3589.76 663.806 3589.76ZM663.969 3571.74C663.969 3568.27 660.1940000000001 3568.5499999999997 660.1940000000001 3568.5499999999997L654.5960000000001 3568.5499999999997L654.6030000000001 3580.87L659.826 3580.8399999999997C659.826 3580.8399999999997 664.32 3581.18 664.36 3577.1499999999996C664.36 3574.7999999999997 662.465 3574.2299999999996 662.465 3574.2299999999996C662.465 3574.2299999999996 663.969 3573.6899999999996 663.969 3571.74ZM669.854 3571.32C665.267 3571.32 665.493 3576.1400000000003 665.493 3576.1400000000003C665.493 3576.1400000000003 665.2370000000001 3580.88 669.9440000000001 3580.88C673.5680000000001 3580.88 674.094 3577.8900000000003 674.094 3577.8900000000003L671.763 3577.8900000000003C671.763 3577.8900000000003 671.3870000000001 3578.9400000000005 670.004 3578.9200000000005C667.7330000000001 3578.9200000000005 667.809 3576.7300000000005 667.809 3576.7300000000005L674.199 3576.7000000000003C674.199 3576.7000000000003 674.861 3571.32 669.8539999999999 3571.32ZM659.723 3578.7L657.117 3578.6899999999996L657.107 3575.4099999999994C657.107 3575.4099999999994 658.692 3575.4199999999996 659.7579999999999 3575.4199999999996C659.7539999999999 3575.4199999999996 661.7679999999999 3575.2799999999997 661.7679999999999 3576.95C661.7679999999999 3578.9399999999996 659.723 3578.7 659.723 3578.7ZM669.839 3573.29C671.8080000000001 3573.29 671.854 3575.16 671.854 3575.16L667.854 3575.19C667.854 3575.19 668.004 3573.29 669.839 3573.29ZM672.305 3569.22L667.5129999999999 3569.22L667.5129999999999 3570.5899999999997L672.305 3570.5899999999997ZM661.518 3572.01C661.518 3570.42 659.385 3570.7000000000003 659.385 3570.7000000000003L657.112 3570.69L657.112 3573.41L659.7429999999999 3573.3999999999996C659.7429999999999 3573.3999999999996 661.5179999999999 3573.6099999999997 661.5179999999999 3572.0099999999998Z " fill="#ffffff" transform="matrix(1,0,0,1,-647.65,-3559)"></path></svg>