<svg id="SvgjsSvg1023" xmlns="http://www.w3.org/2000/svg" version="1.1" xmlns:xlink="http://www.w3.org/1999/xlink" xmlns:svgjs="http://svgjs.com/svgjs" width="32.700000000000045" height="33.375"><defs id="SvgjsDefs1024"><filter id="SvgjsFilter1026" width="200%" height="200%" x="-50%" y="-50%"><feGaussianBlur id="SvgjsFeGaussianBlur1027" stdDeviation="0.5 " result="SvgjsFeGaussianBlur1027Out" in="SourceGraphic"></feGaussianBlur></filter></defs><path id="SvgjsPath1025" d="M702.546 3587.72C695.946 3587.72 690.595 3582.35 690.595 3575.72C690.595 3569.1 695.946 3563.73 702.546 3563.73C709.147 3563.73 714.498 3569.1 714.498 3575.72C714.498 3582.35 709.147 3587.72 702.546 3587.72ZM695.041 3582.14C698.774 3576.5 703.441 3575.64 703.441 3575.64L702.642 3573.8799999999997C702.642 3573.8799999999997 699.4300000000001 3575.1199999999994 692.702 3575.3299999999995C692.702 3575.3499999999995 692.368 3579.0399999999995 695.041 3582.1399999999994ZM706.084 3584.96C706.084 3584.96 705.233 3579.95 704.121 3577.37C699.193 3578.75 696.502 3583.5299999999997 696.494 3583.5299999999997C701.249 3587.14 706.0840000000001 3584.9599999999996 706.0840000000001 3584.9599999999996ZM692.905 3573.64C698.168 3573.5 701.8249999999999 3572.31 701.8249999999999 3572.31C701.8249999999999 3572.31 700.554 3569.85 698.1039999999999 3566.89C693.6199999999999 3569.21 692.905 3573.64 692.905 3573.64ZM700.049 3566.16C700.049 3566.16 702.451 3568.6499999999996 703.771 3571.6299999999997C703.771 3571.6299999999997 706.7529999999999 3570.5099999999998 708.9879999999999 3568.24C704.8449999999999 3564.6299999999997 700.049 3566.16 700.049 3566.16ZM712.331 3576.98C709.03 3576.45 706.052 3576.94 706.052 3576.94C706.052 3576.94 707.345 3580.36 707.967 3583.9900000000002C707.967 3583.9900000000002 711.687 3581.9300000000003 712.331 3576.98ZM710.182 3569.46C710.182 3569.46 708.13 3571.83 704.553 3573.21C704.85 3573.85 705.132 3574.52 705.404 3575.21C708.467 3574.62 712.388 3575.18 712.388 3575.19C712.206 3571.64 710.182 3569.46 710.182 3569.46ZM687.294 3575.64C687.294 3584.1299999999997 694.1659999999999 3591.0099999999998 702.644 3591.0099999999998C711.121 3591.0099999999998 717.994 3584.1299999999997 717.994 3575.64C717.994 3567.15 711.121 3560.2599999999998 702.644 3560.2599999999998C694.166 3560.2599999999998 687.294 3567.1499999999996 687.294 3575.64Z " fill="#000000" fill-opacity="0.25" filter="url(#SvgjsFilter1026)" transform="matrix(1,0,0,1,-686.15,-3559)"></path><path id="SvgjsPath1028" d="M702.546 3586.72C695.946 3586.72 690.595 3581.35 690.595 3574.72C690.595 3568.1 695.946 3562.73 702.546 3562.73C709.147 3562.73 714.498 3568.1 714.498 3574.72C714.498 3581.35 709.147 3586.72 702.546 3586.72ZM695.041 3581.14C698.774 3575.5 703.441 3574.64 703.441 3574.64L702.642 3572.8799999999997C702.642 3572.8799999999997 699.4300000000001 3574.1199999999994 692.702 3574.3299999999995C692.702 3574.3499999999995 692.368 3578.0399999999995 695.041 3581.1399999999994ZM706.084 3583.96C706.084 3583.96 705.233 3578.95 704.121 3576.37C699.193 3577.75 696.502 3582.5299999999997 696.494 3582.5299999999997C701.249 3586.14 706.0840000000001 3583.9599999999996 706.0840000000001 3583.9599999999996ZM692.905 3572.64C698.168 3572.5 701.8249999999999 3571.31 701.8249999999999 3571.31C701.8249999999999 3571.31 700.554 3568.85 698.1039999999999 3565.89C693.6199999999999 3568.21 692.905 3572.64 692.905 3572.64ZM700.049 3565.16C700.049 3565.16 702.451 3567.6499999999996 703.771 3570.6299999999997C703.771 3570.6299999999997 706.7529999999999 3569.5099999999998 708.9879999999999 3567.24C704.8449999999999 3563.6299999999997 700.049 3565.16 700.049 3565.16ZM712.331 3575.98C709.03 3575.45 706.052 3575.94 706.052 3575.94C706.052 3575.94 707.345 3579.36 707.967 3582.9900000000002C707.967 3582.9900000000002 711.687 3580.9300000000003 712.331 3575.98ZM710.182 3568.46C710.182 3568.46 708.13 3570.83 704.553 3572.21C704.85 3572.85 705.132 3573.52 705.404 3574.21C708.467 3573.62 712.388 3574.18 712.388 3574.19C712.206 3570.64 710.182 3568.46 710.182 3568.46ZM687.294 3574.64C687.294 3583.1299999999997 694.1659999999999 3590.0099999999998 702.644 3590.0099999999998C711.121 3590.0099999999998 717.994 3583.1299999999997 717.994 3574.64C717.994 3566.15 711.121 3559.2599999999998 702.644 3559.2599999999998C694.166 3559.2599999999998 687.294 3566.1499999999996 687.294 3574.64Z " fill="#ffffff" transform="matrix(1,0,0,1,-686.15,-3559)"></path></svg>