<svg id="SvgjsSvg1000" xmlns="http://www.w3.org/2000/svg" version="1.1" xmlns:xlink="http://www.w3.org/1999/xlink" xmlns:svgjs="http://svgjs.com/svgjs" width="32.700000000000045" height="32.86999999999989"><defs id="SvgjsDefs1001"><filter id="SvgjsFilter1008" width="200%" height="200%" x="-50%" y="-50%"><feGaussianBlur id="SvgjsFeGaussianBlur1009" stdDeviation="0.5 " result="SvgjsFeGaussianBlur1009Out" in="SourceGraphic"></feGaussianBlur></filter></defs><path id="SvgjsPath1007" d="M589.255 3566.97L585.721 3566.97C582.254 3566.97 583.044 3571.0899999999997 582.929 3572.5899999999997C582.929 3572.6 580.809 3572.5899999999997 580.809 3572.5899999999997L580.809 3575.3799999999997L582.922 3575.3799999999997L582.922 3585.22L586.434 3585.22L586.4259999999999 3575.3799999999997L588.7789999999999 3575.3799999999997L589.2399999999999 3572.5699999999997L586.4339999999999 3572.6099999999997C586.4339999999999 3570.6099999999997 586.2799999999999 3569.7999999999997 587.4449999999998 3569.7999999999997C587.5489999999999 3569.7999999999997 589.2509999999999 3569.7899999999995 589.2509999999999 3569.7899999999995ZM585.35 3560.02C593.828 3560.02 600.7 3566.9 600.7 3575.39C600.7 3583.8799999999997 593.8280000000001 3590.7599999999998 585.35 3590.7599999999998C576.8720000000001 3590.7599999999998 570 3583.8799999999997 570 3575.39C570 3566.9 576.872 3560.02 585.35 3560.02Z " fill="#000000" fill-opacity="0.25" filter="url(#SvgjsFilter1008)" transform="matrix(1,0,0,1,-569.15,-3559)"></path><path id="SvgjsPath1010" d="M589.255 3565.97L585.721 3565.97C582.254 3565.97 583.044 3570.0899999999997 582.929 3571.5899999999997C582.929 3571.6 580.809 3571.5899999999997 580.809 3571.5899999999997L580.809 3574.3799999999997L582.922 3574.3799999999997L582.922 3584.22L586.434 3584.22L586.4259999999999 3574.3799999999997L588.7789999999999 3574.3799999999997L589.2399999999999 3571.5699999999997L586.4339999999999 3571.6099999999997C586.4339999999999 3569.6099999999997 586.2799999999999 3568.7999999999997 587.4449999999998 3568.7999999999997C587.5489999999999 3568.7999999999997 589.2509999999999 3568.7899999999995 589.2509999999999 3568.7899999999995ZM585.35 3559.02C593.828 3559.02 600.7 3565.9 600.7 3574.39C600.7 3582.8799999999997 593.8280000000001 3589.7599999999998 585.35 3589.7599999999998C576.8720000000001 3589.7599999999998 570 3582.8799999999997 570 3574.39C570 3565.9 576.872 3559.02 585.35 3559.02Z " fill="#ffffff" transform="matrix(1,0,0,1,-569.15,-3559)"></path></svg>