<svg id="SvgjsSvg1011" xmlns="http://www.w3.org/2000/svg" version="1.1" xmlns:xlink="http://www.w3.org/1999/xlink" xmlns:svgjs="http://svgjs.com/svgjs" width="32.700000000000045" height="32.875"><defs id="SvgjsDefs1012"><filter id="SvgjsFilter1014" width="200%" height="200%" x="-50%" y="-50%"><feGaussianBlur id="SvgjsFeGaussianBlur1015" stdDeviation="0.5 " result="SvgjsFeGaussianBlur1015Out" in="SourceGraphic"></feGaussianBlur></filter></defs><path id="SvgjsPath1013" d="M623.23399 3573.53999C617.007 3569.3300000000004 616.5949999999999 3570.1400000000003 616.5949999999999 3570.15C616.1059999999999 3571.25 618.0009999999999 3572.63 618.0009999999999 3572.63L617.4599999999998 3572.65C617.4599999999998 3572.65 616.6629999999998 3572.62 616.8369999999998 3573.19C617.0149999999998 3573.92 617.9589999999997 3574.67 617.9669999999998 3574.68C618.4319999999998 3574.8999999999996 619.0129999999998 3574.69 619.0129999999998 3574.69C619.0129999999998 3574.69 618.3969999999998 3575.02 618.0069999999998 3575.26C617.3639999999998 3575.6800000000003 617.8259999999998 3576.0400000000004 617.8959999999998 3576.11C618.7329999999998 3577.01 620.0479999999999 3576.9500000000003 620.0479999999999 3576.9500000000003C620.0479999999999 3576.9500000000003 619.4369999999999 3577.69 619.4319999999999 3577.9700000000003C619.4319999999999 3578.42 619.8389999999999 3578.7000000000003 619.8729999999999 3578.7300000000005C620.237 3578.9800000000005 620.776 3579.0100000000007 620.78 3579.0100000000007C617.41269 3582.5882000000006 613.3550799999999 3578.9936200000006 613.351 3578.980020000001C613.80401 3581.600010000001 617.65301 3584.130000000001 624.42 3583.150000000001C629.908 3582.270000000001 631.663 3576.250000000001 631.663 3576.250000000001C631.663 3576.250000000001 633.931 3576.380000000001 634.187 3575.030000000001C633.477 3575.160000000001 632.4540000000001 3574.950000000001 632.4540000000001 3574.950000000001C632.4540000000001 3574.950000000001 634.1980000000001 3574.190000000001 634.2800000000001 3573.280000000001C633.2560000000001 3574.0800000000013 631.7330000000001 3573.860000000001 631.6980000000001 3573.860000000001C630.5120000000001 3569.720000000001 627.6640000000001 3569.720000000001 627.6640000000001 3569.720000000001C627.6640000000001 3569.720000000001 628.873 3569.030000000001 628.8380000000001 3568.6200000000013C628.4660000000001 3568.3500000000013 627.72 3568.8800000000015 627.657 3568.8800000000015C627.845 3568.7500000000014 627.7330000000001 3568.3700000000013 627.489 3568.2300000000014C627.129 3568.2700000000013 626.815 3568.930000000001 626.815 3568.930000000001C626.815 3568.930000000001 626.638 3568.6000000000013 626.4780000000001 3568.6000000000013C624.5724500000001 3569.129600000001 623.2300500000001 3573.5332800000015 623.2339900000001 3573.539990000001ZM613.351 3578.98C613.351 3578.98001 613.351 3578.98001 613.351 3578.98002C613.351 3578.9800099999998 613.351 3578.9800099999998 613.351 3578.98ZM623.537 3560C632.015 3560 638.8870000000001 3566.89 638.8870000000001 3575.38C638.8870000000001 3583.87 632.0150000000001 3590.75 623.537 3590.75C615.0600000000001 3590.75 608.187 3583.87 608.187 3575.38C608.187 3566.8900000000003 615.0600000000001 3560 623.537 3560Z " fill="#000000" fill-opacity="0.25" filter="url(#SvgjsFilter1014)" transform="matrix(1,0,0,1,-607.15,-3559)"></path><path id="SvgjsPath1016" d="M623.23399 3572.53999C617.007 3568.3300000000004 616.5949999999999 3569.1400000000003 616.5949999999999 3569.15C616.1059999999999 3570.25 618.0009999999999 3571.63 618.0009999999999 3571.63L617.4599999999998 3571.65C617.4599999999998 3571.65 616.6629999999998 3571.62 616.8369999999998 3572.19C617.0149999999998 3572.92 617.9589999999997 3573.67 617.9669999999998 3573.68C618.4319999999998 3573.8999999999996 619.0129999999998 3573.69 619.0129999999998 3573.69C619.0129999999998 3573.69 618.3969999999998 3574.02 618.0069999999998 3574.26C617.3639999999998 3574.6800000000003 617.8259999999998 3575.0400000000004 617.8959999999998 3575.11C618.7329999999998 3576.01 620.0479999999999 3575.9500000000003 620.0479999999999 3575.9500000000003C620.0479999999999 3575.9500000000003 619.4369999999999 3576.69 619.4319999999999 3576.9700000000003C619.4319999999999 3577.42 619.8389999999999 3577.7000000000003 619.8729999999999 3577.7300000000005C620.237 3577.9800000000005 620.776 3578.0100000000007 620.78 3578.0100000000007C617.41269 3581.5882000000006 613.3550799999999 3577.9936200000006 613.351 3577.980020000001C613.80401 3580.600010000001 617.65301 3583.130000000001 624.42 3582.150000000001C629.908 3581.270000000001 631.663 3575.250000000001 631.663 3575.250000000001C631.663 3575.250000000001 633.931 3575.380000000001 634.187 3574.030000000001C633.477 3574.160000000001 632.4540000000001 3573.950000000001 632.4540000000001 3573.950000000001C632.4540000000001 3573.950000000001 634.1980000000001 3573.190000000001 634.2800000000001 3572.280000000001C633.2560000000001 3573.0800000000013 631.7330000000001 3572.860000000001 631.6980000000001 3572.860000000001C630.5120000000001 3568.720000000001 627.6640000000001 3568.720000000001 627.6640000000001 3568.720000000001C627.6640000000001 3568.720000000001 628.873 3568.030000000001 628.8380000000001 3567.6200000000013C628.4660000000001 3567.3500000000013 627.72 3567.8800000000015 627.657 3567.8800000000015C627.845 3567.7500000000014 627.7330000000001 3567.3700000000013 627.489 3567.2300000000014C627.129 3567.2700000000013 626.815 3567.930000000001 626.815 3567.930000000001C626.815 3567.930000000001 626.638 3567.6000000000013 626.4780000000001 3567.6000000000013C624.5724500000001 3568.129600000001 623.2300500000001 3572.5332800000015 623.2339900000001 3572.539990000001ZM613.351 3577.98C613.351 3577.98001 613.351 3577.98001 613.351 3577.98002C613.351 3577.9800099999998 613.351 3577.9800099999998 613.351 3577.98ZM623.537 3559C632.015 3559 638.8870000000001 3565.89 638.8870000000001 3574.38C638.8870000000001 3582.87 632.0150000000001 3589.75 623.537 3589.75C615.0600000000001 3589.75 608.187 3582.87 608.187 3574.38C608.187 3565.8900000000003 615.0600000000001 3559 623.537 3559Z " fill="#ffffff" transform="matrix(1,0,0,1,-607.15,-3559)"></path></svg>