<svg id="SvgjsSvg1000" xmlns="http://www.w3.org/2000/svg" version="1.1" xmlns:xlink="http://www.w3.org/1999/xlink" xmlns:svgjs="http://svgjs.com/svgjs" width="47" height="47" viewBox="0 0 47 47"><title>facebook  </title><desc>Created with Avocode.</desc><defs id="SvgjsDefs1001"><filter id="SvgjsFilter1008" width="200%" height="200%" x="-50%" y="-50%"><feMorphology id="SvgjsFeMorphology1009" operator="dilate" radius="0" result="SvgjsFeMorphology1009Out" in="SourceGraphic"></feMorphology><feOffset id="SvgjsFeOffset1010" dx="0" dy="1" result="SvgjsFeOffset1010Out" in="SvgjsFeMorphology1009Out"></feOffset><feGaussianBlur id="SvgjsFeGaussianBlur1011" stdDeviation="0.5 " result="SvgjsFeGaussianBlur1011Out" in="SvgjsFeOffset1010Out"></feGaussianBlur><feComposite id="SvgjsFeComposite1012" in="SvgjsFeGaussianBlur1011Out" in2="SourceAlpha" operator="out" result="SvgjsFeComposite1012Out"></feComposite></filter></defs><path id="SvgjsPath1007" d="M569.224 7250.17H564.0440000000001C558.9620000000001 7250.17 560.1200000000001 7256.2 559.9510000000001 7258.4C559.9510000000001 7258.41 556.8440000000002 7258.4 556.8440000000002 7258.4V7262.49H559.9420000000001V7276.88H565.0890000000002L565.0780000000002 7262.49H568.5260000000002L569.2020000000002 7258.37L565.0890000000002 7258.42C565.0890000000002 7255.5 564.8630000000002 7254.31 566.5700000000002 7254.31C566.7230000000002 7254.31 569.2190000000002 7254.31 569.2190000000002 7254.31ZM563.5 7240C575.926 7240 586 7250.07 586 7262.5C586 7274.93 575.926 7285 563.5 7285C551.073 7285 541 7274.93 541 7262.5C541 7250.07 551.073 7240 563.5 7240Z " fill="#000000" fill-opacity="0.25" filter="url(#SvgjsFilter1008)" transform="matrix(1,0,0,1,-540,-7240)"></path><path id="SvgjsPath1013" d="M569.224 7250.17H564.0440000000001C558.9620000000001 7250.17 560.1200000000001 7256.2 559.9510000000001 7258.4C559.9510000000001 7258.41 556.8440000000002 7258.4 556.8440000000002 7258.4V7262.49H559.9420000000001V7276.88H565.0890000000002L565.0780000000002 7262.49H568.5260000000002L569.2020000000002 7258.37L565.0890000000002 7258.42C565.0890000000002 7255.5 564.8630000000002 7254.31 566.5700000000002 7254.31C566.7230000000002 7254.31 569.2190000000002 7254.31 569.2190000000002 7254.31ZM563.5 7240C575.926 7240 586 7250.07 586 7262.5C586 7274.93 575.926 7285 563.5 7285C551.073 7285 541 7274.93 541 7262.5C541 7250.07 551.073 7240 563.5 7240Z " fill="#ffffff" fill-opacity="1" transform="matrix(1,0,0,1,-540,-7240)"></path></svg>