<svg id="SvgjsSvg1032" xmlns="http://www.w3.org/2000/svg" version="1.1" xmlns:xlink="http://www.w3.org/1999/xlink" xmlns:svgjs="http://svgjs.com/svgjs" width="48" height="48" viewBox="0 0 48 48"><title>google plus </title><desc>Created with Avocode.</desc><defs id="SvgjsDefs1033"><filter id="SvgjsFilter1035" width="200%" height="200%" x="-50%" y="-50%"><feMorphology id="SvgjsFeMorphology1036" operator="dilate" radius="0" result="SvgjsFeMorphology1036Out" in="SourceGraphic"></feMorphology><feOffset id="SvgjsFeOffset1037" dx="0" dy="1" result="SvgjsFeOffset1037Out" in="SvgjsFeMorphology1036Out"></feOffset><feGaussianBlur id="SvgjsFeGaussianBlur1038" stdDeviation="0.5 " result="SvgjsFeGaussianBlur1038Out" in="SvgjsFeOffset1037Out"></feGaussianBlur><feComposite id="SvgjsFeComposite1039" in="SvgjsFeGaussianBlur1038Out" in2="SourceAlpha" operator="out" result="SvgjsFeComposite1039Out"></feComposite></filter></defs><path id="SvgjsPath1034" d="M744.707 7270.12C744.623 7270.26 745.095 7273.5599999999995 739.694 7273.76C733.889 7273.66 733.765 7269.9800000000005 733.765 7269.64C733.741 7265.81 738.91 7265.62 740.24 7265.58C741.388 7265.72 744.667 7267.63 744.707 7270.12ZM735.606 7255.77C735.606 7255.77 734.484 7250.72 738.53 7250.67C741.689 7250.33 742.771 7255.1900000000005 742.771 7255.1900000000005C742.771 7255.1900000000005 743.9159999999999 7260.210000000001 739.438 7260.210000000001C736.552 7260.050000000001 735.606 7255.770000000001 735.606 7255.770000000001ZM738.845 7262.36C738.845 7263.219999999999 739.155 7263.82 739.847 7264.63C737.872 7264.83 735.343 7264.9400000000005 733.433 7266.21C730.3389999999999 7268.1 730.665 7270.36 730.665 7270.33C730.9019999999999 7275.3099999999995 738.108 7275.21 738.086 7275.17C743.869 7275.12 746.789 7271.9400000000005 746.789 7268.75C746.789 7267.04 746.104 7265.45 744.16 7264.05C743.307 7263.27 742.059 7262.820000000001 742.064 7261.6900000000005C742.064 7259.63 745.855 7259.18 745.855 7255.200000000001C745.722 7252.160000000001 743.672 7250.85 743.41 7250.68C743.4649999999999 7250.68 745.511 7250.68 745.511 7250.68L747.683 7249.47C747.683 7249.47 740.758 7249.47 740.724 7249.47C737.2810000000001 7249.47 735.706 7250.39 734.6600000000001 7251.280000000001C733.748 7252.1900000000005 732.5330000000001 7253.56 732.5670000000001 7255.800000000001C732.5670000000001 7257.740000000001 734.0010000000001 7261.100000000001 738.1030000000001 7261.120000000001C738.373 7261.1 738.5360000000001 7261.120000000001 739.177 7261.070000000001C738.958 7261.570000000001 738.862 7261.89 738.845 7262.360000000001ZM755 7258V7255H758V7252H755V7249H752V7252H749V7255H752V7258ZM744.475 7239.95C756.9010000000001 7239.95 766.975 7250.0199999999995 766.975 7262.45C766.975 7274.88 756.9010000000001 7284.95 744.475 7284.95C732.049 7284.95 721.975 7274.88 721.975 7262.45C721.975 7250.0199999999995 732.049 7239.95 744.475 7239.95Z " fill="#000000" fill-opacity="0.25" filter="url(#SvgjsFilter1035)" transform="matrix(1,0,0,1,-720,-7239)"></path><path id="SvgjsPath1040" d="M744.707 7270.12C744.623 7270.26 745.095 7273.5599999999995 739.694 7273.76C733.889 7273.66 733.765 7269.9800000000005 733.765 7269.64C733.741 7265.81 738.91 7265.62 740.24 7265.58C741.388 7265.72 744.667 7267.63 744.707 7270.12ZM735.606 7255.77C735.606 7255.77 734.484 7250.72 738.53 7250.67C741.689 7250.33 742.771 7255.1900000000005 742.771 7255.1900000000005C742.771 7255.1900000000005 743.9159999999999 7260.210000000001 739.438 7260.210000000001C736.552 7260.050000000001 735.606 7255.770000000001 735.606 7255.770000000001ZM738.845 7262.36C738.845 7263.219999999999 739.155 7263.82 739.847 7264.63C737.872 7264.83 735.343 7264.9400000000005 733.433 7266.21C730.3389999999999 7268.1 730.665 7270.36 730.665 7270.33C730.9019999999999 7275.3099999999995 738.108 7275.21 738.086 7275.17C743.869 7275.12 746.789 7271.9400000000005 746.789 7268.75C746.789 7267.04 746.104 7265.45 744.16 7264.05C743.307 7263.27 742.059 7262.820000000001 742.064 7261.6900000000005C742.064 7259.63 745.855 7259.18 745.855 7255.200000000001C745.722 7252.160000000001 743.672 7250.85 743.41 7250.68C743.4649999999999 7250.68 745.511 7250.68 745.511 7250.68L747.683 7249.47C747.683 7249.47 740.758 7249.47 740.724 7249.47C737.2810000000001 7249.47 735.706 7250.39 734.6600000000001 7251.280000000001C733.748 7252.1900000000005 732.5330000000001 7253.56 732.5670000000001 7255.800000000001C732.5670000000001 7257.740000000001 734.0010000000001 7261.100000000001 738.1030000000001 7261.120000000001C738.373 7261.1 738.5360000000001 7261.120000000001 739.177 7261.070000000001C738.958 7261.570000000001 738.862 7261.89 738.845 7262.360000000001ZM755 7258V7255H758V7252H755V7249H752V7252H749V7255L752 7255V7258ZM744.475 7239.95C756.9010000000001 7239.95 766.975 7250.0199999999995 766.975 7262.45C766.975 7274.88 756.9010000000001 7284.95 744.475 7284.95C732.049 7284.95 721.975 7274.88 721.975 7262.45C721.975 7250.0199999999995 732.049 7239.95 744.475 7239.95Z " fill="#ffffff" fill-opacity="1" transform="matrix(1,0,0,1,-720,-7239)"></path></svg>