<svg id="SvgjsSvg1023" xmlns="http://www.w3.org/2000/svg" version="1.1" xmlns:xlink="http://www.w3.org/1999/xlink" xmlns:svgjs="http://svgjs.com/svgjs" width="48" height="48" viewBox="0 0 48 48"><title>linkedin</title><desc>Created with Avocode.</desc><defs id="SvgjsDefs1024"><filter id="SvgjsFilter1026" width="200%" height="200%" x="-50%" y="-50%"><feMorphology id="SvgjsFeMorphology1027" operator="dilate" radius="0" result="SvgjsFeMorphology1027Out" in="SourceGraphic"></feMorphology><feOffset id="SvgjsFeOffset1028" dx="0" dy="1" result="SvgjsFeOffset1028Out" in="SvgjsFeMorphology1027Out"></feOffset><feGaussianBlur id="SvgjsFeGaussianBlur1029" stdDeviation="0.5 " result="SvgjsFeGaussianBlur1029Out" in="SvgjsFeOffset1028Out"></feGaussianBlur><feComposite id="SvgjsFeComposite1030" in="SvgjsFeGaussianBlur1029Out" in2="SourceAlpha" operator="out" result="SvgjsFeComposite1030Out"></feComposite></filter></defs><path id="SvgjsPath1025" d="M674.873 7251.72C676.322 7251.72 677.4960000000001 7252.900000000001 677.4960000000001 7254.35C677.4960000000001 7255.79 676.3220000000001 7256.97 674.873 7256.97C673.4240000000001 7256.97 672.25 7255.79 672.25 7254.35C672.25 7252.900000000001 673.424 7251.72 674.873 7251.72ZM673 7274V7259H678V7274ZM686.182 7258.53V7260.8099999999995C686.666 7260.08 687.611 7258.28 690.734 7258.249999999999C696.4490000000001 7258.249999999999 696.423 7264.459999999999 696.423 7265.919999999999C696.423 7265.949999999999 696.36 7273.969999999999 696.36 7273.969999999999L691.301 7273.959999999999C691.301 7273.959999999999 691.3196200000001 7266.548769999999 691.3086500000001 7265.450879999999C691.3318 7265.102 691.2868900000001 7262.589999999999 688.9580000000001 7262.589999999999C685.8100000000001 7262.589999999999 686.1790000000001 7265.739999999999 686.1790000000001 7265.739999999999V7273.9299999999985H681.0260000000001V7258.529999999999ZM691.301 7265.46C691.30442 7265.26142 691.30691 7265.27666 691.3086500000001 7265.45088C691.30547 7265.49883 691.301 7265.5059200000005 691.301 7265.46ZM662.035 7262.57C662.035 7275 672.1089999999999 7285.07 684.535 7285.07C696.962 7285.07 707.035 7275 707.035 7262.57C707.035 7250.139999999999 696.962 7240.07 684.535 7240.07C672.1089999999999 7240.07 662.035 7250.139999999999 662.035 7262.57Z " fill="#000000" fill-opacity="0.25" filter="url(#SvgjsFilter1026)" transform="matrix(1,0,0,1,-661,-7240)"></path><path id="SvgjsPath1031" d="M674.873 7251.72C676.322 7251.72 677.4960000000001 7252.900000000001 677.4960000000001 7254.35C677.4960000000001 7255.79 676.3220000000001 7256.97 674.873 7256.97C673.4240000000001 7256.97 672.25 7255.79 672.25 7254.35C672.25 7252.900000000001 673.424 7251.72 674.873 7251.72ZM673 7274V7259H678V7274ZM686.182 7258.53V7260.8099999999995C686.666 7260.08 687.611 7258.28 690.734 7258.249999999999C696.4490000000001 7258.249999999999 696.423 7264.459999999999 696.423 7265.919999999999C696.423 7265.949999999999 696.36 7273.969999999999 696.36 7273.969999999999L691.301 7273.959999999999C691.301 7273.959999999999 691.3196200000001 7266.548769999999 691.3086500000001 7265.450879999999C691.3318 7265.102 691.2868900000001 7262.589999999999 688.9580000000001 7262.589999999999C685.8100000000001 7262.589999999999 686.1790000000001 7265.739999999999 686.1790000000001 7265.739999999999V7273.9299999999985H681.0260000000001V7258.529999999999ZM691.301 7265.46C691.30442 7265.26142 691.30691 7265.27666 691.3086500000001 7265.45088C691.30547 7265.49883 691.301 7265.5059200000005 691.301 7265.46ZM662.035 7262.57C662.035 7275 672.1089999999999 7285.07 684.535 7285.07C696.962 7285.07 707.035 7275 707.035 7262.57C707.035 7250.139999999999 696.962 7240.07 684.535 7240.07C672.1089999999999 7240.07 662.035 7250.139999999999 662.035 7262.57Z " fill="#ffffff" fill-opacity="1" transform="matrix(1,0,0,1,-661,-7240)"></path></svg>