<svg id="SvgjsSvg1041" xmlns="http://www.w3.org/2000/svg" version="1.1" xmlns:xlink="http://www.w3.org/1999/xlink" xmlns:svgjs="http://svgjs.com/svgjs" width="48" height="47" viewBox="0 0 48 47"><title>tumblr</title><desc>Created with Avocode.</desc><defs id="SvgjsDefs1042"><filter id="SvgjsFilter1044" width="200%" height="200%" x="-50%" y="-50%"><feMorphology id="SvgjsFeMorphology1045" operator="dilate" radius="0" result="SvgjsFeMorphology1045Out" in="SourceGraphic"></feMorphology><feOffset id="SvgjsFeOffset1046" dx="0" dy="1" result="SvgjsFeOffset1046Out" in="SvgjsFeMorphology1045Out"></feOffset><feGaussianBlur id="SvgjsFeGaussianBlur1047" stdDeviation="0.5 " result="SvgjsFeGaussianBlur1047Out" in="SvgjsFeOffset1046Out"></feGaussianBlur><feComposite id="SvgjsFeComposite1048" in="SvgjsFeGaussianBlur1047Out" in2="SourceAlpha" operator="out" result="SvgjsFeComposite1048Out"></feComposite></filter></defs><path id="SvgjsPath1043" d="M802.588 7251.96C803.697 7251.96 805.987 7251.96 805.987 7251.96V7257.9800000000005H811V7261.990000000001H805.992C805.992 7261.990000000001 805.9879999999999 7266.670000000001 805.9879999999999 7268.260000000001C805.9879999999999 7271.310000000001 808.117 7271.920000000001 811.9939999999999 7270.140000000001C811.9939999999999 7271.760000000001 811.9939999999999 7272.890000000001 811.9939999999999 7274.130000000001C809.8739999999999 7274.830000000001 807.237 7275.210000000001 805.1189999999999 7274.9000000000015C803.4079999999999 7274.6500000000015 800.9999999999999 7273.630000000001 800.9999999999999 7270.990000000002C800.9999999999999 7269.6500000000015 800.9999999999999 7261.970000000001 800.9999999999999 7261.970000000001H798.0109999999999C798.0109999999999 7261.970000000001 798.0139999999999 7259.130000000001 798.0139999999999 7258.010000000001C801.4679999999998 7256.310000000001 802.4019999999999 7254.740000000001 802.5879999999999 7251.960000000001ZM781.999 7262.5C781.999 7274.93 792.073 7285 804.499 7285C816.9250000000001 7285 826.999 7274.93 826.999 7262.5C826.999 7250.07 816.9250000000001 7240 804.499 7240C792.073 7240 781.999 7250.07 781.999 7262.5Z " fill="#000000" fill-opacity="0.25" filter="url(#SvgjsFilter1044)" transform="matrix(1,0,0,1,-780,-7240)"></path><path id="SvgjsPath1049" d="M802.588 7251.96C803.697 7251.96 805.987 7251.96 805.987 7251.96V7257.9800000000005H811V7261.990000000001H805.992C805.992 7261.990000000001 805.9879999999999 7266.670000000001 805.9879999999999 7268.260000000001C805.9879999999999 7271.310000000001 808.117 7271.920000000001 811.9939999999999 7270.140000000001C811.9939999999999 7271.760000000001 811.9939999999999 7272.890000000001 811.9939999999999 7274.130000000001C809.8739999999999 7274.830000000001 807.237 7275.210000000001 805.1189999999999 7274.9000000000015C803.4079999999999 7274.6500000000015 800.9999999999999 7273.630000000001 800.9999999999999 7270.990000000002C800.9999999999999 7269.6500000000015 800.9999999999999 7261.970000000001 800.9999999999999 7261.970000000001H798.0109999999999C798.0109999999999 7261.970000000001 798.0139999999999 7259.130000000001 798.0139999999999 7258.010000000001C801.4679999999998 7256.310000000001 802.4019999999999 7254.740000000001 802.5879999999999 7251.960000000001ZM781.999 7262.5C781.999 7274.93 792.073 7285 804.499 7285C816.9250000000001 7285 826.999 7274.93 826.999 7262.5C826.999 7250.07 816.9250000000001 7240 804.499 7240C792.073 7240 781.999 7250.07 781.999 7262.5Z " fill="#ffffff" fill-opacity="1" transform="matrix(1,0,0,1,-780,-7240)"></path></svg>