<svg id="SvgjsSvg1014" xmlns="http://www.w3.org/2000/svg" version="1.1" xmlns:xlink="http://www.w3.org/1999/xlink" xmlns:svgjs="http://svgjs.com/svgjs" width="48" height="48" viewBox="0 0 48 48"><title>twitter</title><desc>Created with Avocode.</desc><defs id="SvgjsDefs1015"><filter id="SvgjsFilter1017" width="200%" height="200%" x="-50%" y="-50%"><feMorphology id="SvgjsFeMorphology1018" operator="dilate" radius="0" result="SvgjsFeMorphology1018Out" in="SourceGraphic"></feMorphology><feOffset id="SvgjsFeOffset1019" dx="0" dy="1" result="SvgjsFeOffset1019Out" in="SvgjsFeMorphology1018Out"></feOffset><feGaussianBlur id="SvgjsFeGaussianBlur1020" stdDeviation="0.5 " result="SvgjsFeGaussianBlur1020Out" in="SvgjsFeOffset1019Out"></feGaussianBlur><feComposite id="SvgjsFeComposite1021" in="SvgjsFeGaussianBlur1020Out" in2="SourceAlpha" operator="out" result="SvgjsFeComposite1021Out"></feComposite></filter></defs><path id="SvgjsPath1016" d="M624.03 7259.79C614.903 7253.63 614.298 7254.81 614.298 7254.83C613.582 7256.43 616.36 7258.46 616.36 7258.46L615.566 7258.4800000000005C615.566 7258.4800000000005 614.399 7258.450000000001 614.654 7259.280000000001C614.914 7260.340000000001 616.298 7261.450000000001 616.309 7261.460000000001C616.991 7261.780000000001 617.843 7261.480000000001 617.843 7261.480000000001C617.843 7261.480000000001 616.9399999999999 7261.950000000002 616.3679999999999 7262.310000000001C615.4259999999999 7262.910000000002 616.103 7263.450000000002 616.2049999999999 7263.560000000001C617.4319999999999 7264.870000000002 619.3599999999999 7264.780000000002 619.3599999999999 7264.780000000002C619.3599999999999 7264.780000000002 618.4639999999999 7265.8600000000015 618.4569999999999 7266.270000000001C618.4569999999999 7266.930000000001 619.0529999999999 7267.340000000001 619.1039999999999 7267.390000000001C619.637 7267.760000000001 620.4269999999999 7267.800000000001 620.434 7267.800000000001C615.4984 7273.026400000001 609.5512 7267.777240000001 609.54301 7267.7500500000015C610.20805 7271.580030000002 615.84904 7275.280000000002 625.768 7273.850000000001C633.812 7272.5700000000015 636.3860000000001 7263.760000000001 636.3860000000001 7263.760000000001C636.3860000000001 7263.760000000001 639.7090000000001 7263.950000000001 640.0840000000001 7261.970000000001C639.0450000000001 7262.160000000001 637.5450000000001 7261.850000000001 637.5450000000001 7261.850000000001C637.5450000000001 7261.850000000001 640.1010000000001 7260.740000000002 640.2210000000001 7259.410000000002C638.7210000000001 7260.5700000000015 636.4880000000002 7260.250000000002 636.4370000000001 7260.250000000002C634.6990000000001 7254.200000000002 630.5230000000001 7254.200000000002 630.5230000000001 7254.200000000002C630.5230000000001 7254.200000000002 632.2960000000002 7253.190000000001 632.2440000000001 7252.580000000002C631.6990000000002 7252.190000000001 630.6050000000001 7252.970000000002 630.5130000000001 7252.970000000002C630.7890000000001 7252.7800000000025 630.6250000000001 7252.230000000002 630.2670000000002 7252.020000000002C629.7390000000001 7252.070000000002 629.2790000000001 7253.040000000003 629.2790000000001 7253.040000000003C629.2790000000001 7253.040000000003 629.0200000000001 7252.560000000003 628.7850000000001 7252.560000000003C625.9900000000001 7253.330000000004 624.0210000000001 7259.780000000003 624.0300000000001 7259.790000000003ZM624.475 7239.97C636.9010000000001 7239.97 646.975 7250.05 646.975 7262.47C646.975 7274.900000000001 636.9010000000001 7284.97 624.475 7284.97C612.049 7284.97 601.975 7274.900000000001 601.975 7262.47C601.975 7250.05 612.049 7239.97 624.475 7239.97Z " fill="#000000" fill-opacity="0.25" filter="url(#SvgjsFilter1017)" transform="matrix(1,0,0,1,-600,-7239)"></path><path id="SvgjsPath1022" d="M624.03 7259.79C614.903 7253.63 614.298 7254.81 614.298 7254.83C613.582 7256.43 616.36 7258.46 616.36 7258.46L615.566 7258.4800000000005C615.566 7258.4800000000005 614.399 7258.450000000001 614.654 7259.280000000001C614.914 7260.340000000001 616.298 7261.450000000001 616.309 7261.460000000001C616.991 7261.780000000001 617.843 7261.480000000001 617.843 7261.480000000001C617.843 7261.480000000001 616.9399999999999 7261.950000000002 616.3679999999999 7262.310000000001C615.4259999999999 7262.910000000002 616.103 7263.450000000002 616.2049999999999 7263.560000000001C617.4319999999999 7264.870000000002 619.3599999999999 7264.780000000002 619.3599999999999 7264.780000000002C619.3599999999999 7264.780000000002 618.4639999999999 7265.8600000000015 618.4569999999999 7266.270000000001C618.4569999999999 7266.930000000001 619.0529999999999 7267.340000000001 619.1039999999999 7267.390000000001C619.637 7267.760000000001 620.4269999999999 7267.800000000001 620.434 7267.800000000001C615.4984 7273.026400000001 609.5512 7267.777240000001 609.54301 7267.7500500000015C610.20805 7271.580030000002 615.84904 7275.280000000002 625.768 7273.850000000001C633.812 7272.5700000000015 636.3860000000001 7263.760000000001 636.3860000000001 7263.760000000001C636.3860000000001 7263.760000000001 639.7090000000001 7263.950000000001 640.0840000000001 7261.970000000001C639.0450000000001 7262.160000000001 637.5450000000001 7261.850000000001 637.5450000000001 7261.850000000001C637.5450000000001 7261.850000000001 640.1010000000001 7260.740000000002 640.2210000000001 7259.410000000002C638.7210000000001 7260.5700000000015 636.4880000000002 7260.250000000002 636.4370000000001 7260.250000000002C634.6990000000001 7254.200000000002 630.5230000000001 7254.200000000002 630.5230000000001 7254.200000000002C630.5230000000001 7254.200000000002 632.2960000000002 7253.190000000001 632.2440000000001 7252.580000000002C631.6990000000002 7252.190000000001 630.6050000000001 7252.970000000002 630.5130000000001 7252.970000000002C630.7890000000001 7252.7800000000025 630.6250000000001 7252.230000000002 630.2670000000002 7252.020000000002C629.7390000000001 7252.070000000002 629.2790000000001 7253.040000000003 629.2790000000001 7253.040000000003C629.2790000000001 7253.040000000003 629.0200000000001 7252.560000000003 628.7850000000001 7252.560000000003C625.9900000000001 7253.330000000004 624.0210000000001 7259.780000000003 624.0300000000001 7259.790000000003ZM624.475 7239.97C636.9010000000001 7239.97 646.975 7250.05 646.975 7262.47C646.975 7274.900000000001 636.9010000000001 7284.97 624.475 7284.97C612.049 7284.97 601.975 7274.900000000001 601.975 7262.47C601.975 7250.05 612.049 7239.97 624.475 7239.97Z " fill="#ffffff" fill-opacity="1" transform="matrix(1,0,0,1,-600,-7239)"></path></svg>